<mxfile host="app.diagrams.net" agent="Mozilla/5.0 (Windows NT 10.0; Win64; x64) AppleWebKit/537.36 (KHTML, like Gecko) Chrome/127.0.0.0 Safari/537.36 OPR/113.0.0.0" version="24.7.16">
  <diagram name="PÃ¡gina-1" id="BZrIooki-f4xo3m39g6X">
    <mxGraphModel dx="1106" dy="3256" grid="1" gridSize="10" guides="1" tooltips="1" connect="1" arrows="1" fold="1" page="1" pageScale="1" pageWidth="827" pageHeight="1169" math="0" shadow="0">
      <root>
        <mxCell id="0" />
        <mxCell id="1" parent="0" />
        <mxCell id="eyLXGdUFiboGXxb-YDFN-11" style="rounded=0;orthogonalLoop=1;jettySize=auto;html=1;exitX=0.5;exitY=1;exitDx=0;exitDy=0;entryX=0.5;entryY=0;entryDx=0;entryDy=0;" edge="1" parent="1" source="eyLXGdUFiboGXxb-YDFN-1" target="eyLXGdUFiboGXxb-YDFN-3">
          <mxGeometry relative="1" as="geometry" />
        </mxCell>
        <mxCell id="eyLXGdUFiboGXxb-YDFN-12" style="rounded=0;orthogonalLoop=1;jettySize=auto;html=1;exitX=0.5;exitY=1;exitDx=0;exitDy=0;entryX=0.5;entryY=0;entryDx=0;entryDy=0;" edge="1" parent="1" source="eyLXGdUFiboGXxb-YDFN-1" target="eyLXGdUFiboGXxb-YDFN-4">
          <mxGeometry relative="1" as="geometry" />
        </mxCell>
        <mxCell id="eyLXGdUFiboGXxb-YDFN-13" style="rounded=0;orthogonalLoop=1;jettySize=auto;html=1;exitX=0.5;exitY=1;exitDx=0;exitDy=0;entryX=0.5;entryY=0;entryDx=0;entryDy=0;" edge="1" parent="1" source="eyLXGdUFiboGXxb-YDFN-1" target="eyLXGdUFiboGXxb-YDFN-5">
          <mxGeometry relative="1" as="geometry" />
        </mxCell>
        <mxCell id="eyLXGdUFiboGXxb-YDFN-14" style="rounded=0;orthogonalLoop=1;jettySize=auto;html=1;exitX=0.5;exitY=1;exitDx=0;exitDy=0;entryX=0.5;entryY=0;entryDx=0;entryDy=0;" edge="1" parent="1" source="eyLXGdUFiboGXxb-YDFN-1" target="eyLXGdUFiboGXxb-YDFN-6">
          <mxGeometry relative="1" as="geometry" />
        </mxCell>
        <mxCell id="eyLXGdUFiboGXxb-YDFN-15" style="rounded=0;orthogonalLoop=1;jettySize=auto;html=1;exitX=0.5;exitY=1;exitDx=0;exitDy=0;entryX=0.5;entryY=0;entryDx=0;entryDy=0;" edge="1" parent="1" source="eyLXGdUFiboGXxb-YDFN-1" target="eyLXGdUFiboGXxb-YDFN-8">
          <mxGeometry relative="1" as="geometry" />
        </mxCell>
        <mxCell id="eyLXGdUFiboGXxb-YDFN-16" style="rounded=0;orthogonalLoop=1;jettySize=auto;html=1;exitX=0.5;exitY=1;exitDx=0;exitDy=0;entryX=0.5;entryY=0;entryDx=0;entryDy=0;" edge="1" parent="1" source="eyLXGdUFiboGXxb-YDFN-1" target="eyLXGdUFiboGXxb-YDFN-7">
          <mxGeometry relative="1" as="geometry" />
        </mxCell>
        <mxCell id="eyLXGdUFiboGXxb-YDFN-19" style="edgeStyle=orthogonalEdgeStyle;rounded=0;orthogonalLoop=1;jettySize=auto;html=1;exitX=1;exitY=0.5;exitDx=0;exitDy=0;entryX=0;entryY=0.5;entryDx=0;entryDy=0;endArrow=none;endFill=0;" edge="1" parent="1" source="eyLXGdUFiboGXxb-YDFN-1" target="eyLXGdUFiboGXxb-YDFN-18">
          <mxGeometry relative="1" as="geometry" />
        </mxCell>
        <mxCell id="eyLXGdUFiboGXxb-YDFN-1" value="tb_usuario" style="whiteSpace=wrap;html=1;align=center;" vertex="1" parent="1">
          <mxGeometry x="200" y="200" width="120" height="40" as="geometry" />
        </mxCell>
        <mxCell id="eyLXGdUFiboGXxb-YDFN-3" value="id" style="ellipse;whiteSpace=wrap;html=1;align=center;fontStyle=4;" vertex="1" parent="1">
          <mxGeometry x="30" y="280" width="100" height="40" as="geometry" />
        </mxCell>
        <mxCell id="eyLXGdUFiboGXxb-YDFN-4" value="nome" style="ellipse;whiteSpace=wrap;html=1;align=center;" vertex="1" parent="1">
          <mxGeometry x="80" y="330" width="100" height="40" as="geometry" />
        </mxCell>
        <mxCell id="eyLXGdUFiboGXxb-YDFN-5" value="role" style="ellipse;whiteSpace=wrap;html=1;align=center;" vertex="1" parent="1">
          <mxGeometry x="150" y="380" width="100" height="40" as="geometry" />
        </mxCell>
        <mxCell id="eyLXGdUFiboGXxb-YDFN-6" value="email" style="ellipse;whiteSpace=wrap;html=1;align=center;" vertex="1" parent="1">
          <mxGeometry x="270" y="380" width="100" height="40" as="geometry" />
        </mxCell>
        <mxCell id="eyLXGdUFiboGXxb-YDFN-7" value="senha" style="ellipse;whiteSpace=wrap;html=1;align=center;" vertex="1" parent="1">
          <mxGeometry x="330" y="330" width="100" height="40" as="geometry" />
        </mxCell>
        <mxCell id="eyLXGdUFiboGXxb-YDFN-8" value="&lt;span style=&quot;border-bottom: 1px dotted&quot;&gt;ocorrencias&lt;/span&gt;" style="ellipse;whiteSpace=wrap;html=1;align=center;" vertex="1" parent="1">
          <mxGeometry x="380" y="280" width="100" height="40" as="geometry" />
        </mxCell>
        <mxCell id="eyLXGdUFiboGXxb-YDFN-24" style="edgeStyle=orthogonalEdgeStyle;rounded=0;orthogonalLoop=1;jettySize=auto;html=1;exitX=0.5;exitY=0;exitDx=0;exitDy=0;entryX=1;entryY=0.5;entryDx=0;entryDy=0;endArrow=none;endFill=0;" edge="1" parent="1" source="eyLXGdUFiboGXxb-YDFN-17" target="eyLXGdUFiboGXxb-YDFN-23">
          <mxGeometry relative="1" as="geometry" />
        </mxCell>
        <mxCell id="eyLXGdUFiboGXxb-YDFN-36" style="rounded=0;orthogonalLoop=1;jettySize=auto;html=1;exitX=0.5;exitY=1;exitDx=0;exitDy=0;entryX=0.5;entryY=0;entryDx=0;entryDy=0;endArrow=classic;endFill=1;" edge="1" parent="1" source="eyLXGdUFiboGXxb-YDFN-17" target="eyLXGdUFiboGXxb-YDFN-28">
          <mxGeometry relative="1" as="geometry" />
        </mxCell>
        <mxCell id="eyLXGdUFiboGXxb-YDFN-37" style="rounded=0;orthogonalLoop=1;jettySize=auto;html=1;exitX=0.5;exitY=1;exitDx=0;exitDy=0;entryX=0.5;entryY=0;entryDx=0;entryDy=0;endArrow=classic;endFill=1;" edge="1" parent="1" source="eyLXGdUFiboGXxb-YDFN-17" target="eyLXGdUFiboGXxb-YDFN-29">
          <mxGeometry relative="1" as="geometry" />
        </mxCell>
        <mxCell id="eyLXGdUFiboGXxb-YDFN-38" style="rounded=0;orthogonalLoop=1;jettySize=auto;html=1;exitX=0.5;exitY=1;exitDx=0;exitDy=0;entryX=0.5;entryY=0;entryDx=0;entryDy=0;endArrow=classic;endFill=1;" edge="1" parent="1" source="eyLXGdUFiboGXxb-YDFN-17" target="eyLXGdUFiboGXxb-YDFN-31">
          <mxGeometry relative="1" as="geometry" />
        </mxCell>
        <mxCell id="eyLXGdUFiboGXxb-YDFN-39" style="rounded=0;orthogonalLoop=1;jettySize=auto;html=1;exitX=0.5;exitY=1;exitDx=0;exitDy=0;entryX=0.5;entryY=0;entryDx=0;entryDy=0;endArrow=classic;endFill=1;" edge="1" parent="1" source="eyLXGdUFiboGXxb-YDFN-17" target="eyLXGdUFiboGXxb-YDFN-32">
          <mxGeometry relative="1" as="geometry" />
        </mxCell>
        <mxCell id="eyLXGdUFiboGXxb-YDFN-40" style="rounded=0;orthogonalLoop=1;jettySize=auto;html=1;exitX=0.5;exitY=1;exitDx=0;exitDy=0;entryX=0.5;entryY=0;entryDx=0;entryDy=0;endArrow=classic;endFill=1;" edge="1" parent="1" source="eyLXGdUFiboGXxb-YDFN-17" target="eyLXGdUFiboGXxb-YDFN-34">
          <mxGeometry relative="1" as="geometry" />
        </mxCell>
        <mxCell id="eyLXGdUFiboGXxb-YDFN-41" style="rounded=0;orthogonalLoop=1;jettySize=auto;html=1;exitX=0.5;exitY=1;exitDx=0;exitDy=0;entryX=0.5;entryY=0;entryDx=0;entryDy=0;endArrow=classic;endFill=1;" edge="1" parent="1" source="eyLXGdUFiboGXxb-YDFN-17" target="eyLXGdUFiboGXxb-YDFN-35">
          <mxGeometry relative="1" as="geometry" />
        </mxCell>
        <mxCell id="eyLXGdUFiboGXxb-YDFN-42" style="rounded=0;orthogonalLoop=1;jettySize=auto;html=1;exitX=0.5;exitY=1;exitDx=0;exitDy=0;entryX=0.5;entryY=0;entryDx=0;entryDy=0;endArrow=classic;endFill=1;" edge="1" parent="1" source="eyLXGdUFiboGXxb-YDFN-17" target="eyLXGdUFiboGXxb-YDFN-33">
          <mxGeometry relative="1" as="geometry" />
        </mxCell>
        <mxCell id="eyLXGdUFiboGXxb-YDFN-43" style="rounded=0;orthogonalLoop=1;jettySize=auto;html=1;exitX=0.5;exitY=1;exitDx=0;exitDy=0;entryX=0.5;entryY=0;entryDx=0;entryDy=0;endArrow=classic;endFill=1;" edge="1" parent="1" source="eyLXGdUFiboGXxb-YDFN-17" target="eyLXGdUFiboGXxb-YDFN-30">
          <mxGeometry relative="1" as="geometry" />
        </mxCell>
        <mxCell id="eyLXGdUFiboGXxb-YDFN-17" value="tb_ocorrencia" style="whiteSpace=wrap;html=1;align=center;" vertex="1" parent="1">
          <mxGeometry x="790" y="200" width="120" height="40" as="geometry" />
        </mxCell>
        <mxCell id="eyLXGdUFiboGXxb-YDFN-20" style="edgeStyle=orthogonalEdgeStyle;rounded=0;orthogonalLoop=1;jettySize=auto;html=1;exitX=1;exitY=0.5;exitDx=0;exitDy=0;entryX=0;entryY=0.5;entryDx=0;entryDy=0;" edge="1" parent="1" source="eyLXGdUFiboGXxb-YDFN-18" target="eyLXGdUFiboGXxb-YDFN-17">
          <mxGeometry relative="1" as="geometry" />
        </mxCell>
        <mxCell id="eyLXGdUFiboGXxb-YDFN-18" value="FAZ" style="shape=rhombus;perimeter=rhombusPerimeter;whiteSpace=wrap;html=1;align=center;" vertex="1" parent="1">
          <mxGeometry x="500" y="190" width="120" height="60" as="geometry" />
        </mxCell>
        <mxCell id="eyLXGdUFiboGXxb-YDFN-21" value="1" style="text;html=1;align=center;verticalAlign=middle;resizable=0;points=[];autosize=1;strokeColor=none;fillColor=none;" vertex="1" parent="1">
          <mxGeometry x="320" y="188" width="30" height="30" as="geometry" />
        </mxCell>
        <mxCell id="eyLXGdUFiboGXxb-YDFN-22" value="N" style="text;html=1;align=center;verticalAlign=middle;resizable=0;points=[];autosize=1;strokeColor=none;fillColor=none;" vertex="1" parent="1">
          <mxGeometry x="730" y="190" width="30" height="30" as="geometry" />
        </mxCell>
        <mxCell id="eyLXGdUFiboGXxb-YDFN-25" style="edgeStyle=orthogonalEdgeStyle;rounded=0;orthogonalLoop=1;jettySize=auto;html=1;exitX=0;exitY=0.5;exitDx=0;exitDy=0;entryX=0.5;entryY=0;entryDx=0;entryDy=0;" edge="1" parent="1" source="eyLXGdUFiboGXxb-YDFN-23" target="eyLXGdUFiboGXxb-YDFN-1">
          <mxGeometry relative="1" as="geometry" />
        </mxCell>
        <mxCell id="eyLXGdUFiboGXxb-YDFN-23" value="POSSUI" style="shape=rhombus;perimeter=rhombusPerimeter;whiteSpace=wrap;html=1;align=center;" vertex="1" parent="1">
          <mxGeometry x="500" y="80" width="120" height="60" as="geometry" />
        </mxCell>
        <mxCell id="eyLXGdUFiboGXxb-YDFN-26" value="N" style="text;html=1;align=center;verticalAlign=middle;resizable=0;points=[];autosize=1;strokeColor=none;fillColor=none;" vertex="1" parent="1">
          <mxGeometry x="790" y="80" width="30" height="30" as="geometry" />
        </mxCell>
        <mxCell id="eyLXGdUFiboGXxb-YDFN-27" value="1" style="text;html=1;align=center;verticalAlign=middle;resizable=0;points=[];autosize=1;strokeColor=none;fillColor=none;" vertex="1" parent="1">
          <mxGeometry x="260" y="80" width="30" height="30" as="geometry" />
        </mxCell>
        <mxCell id="eyLXGdUFiboGXxb-YDFN-28" value="id" style="ellipse;whiteSpace=wrap;html=1;align=center;fontStyle=4;" vertex="1" parent="1">
          <mxGeometry x="600" y="280" width="100" height="40" as="geometry" />
        </mxCell>
        <mxCell id="eyLXGdUFiboGXxb-YDFN-29" value="descricao" style="ellipse;whiteSpace=wrap;html=1;align=center;" vertex="1" parent="1">
          <mxGeometry x="630" y="330" width="100" height="40" as="geometry" />
        </mxCell>
        <mxCell id="eyLXGdUFiboGXxb-YDFN-30" value="&lt;span style=&quot;border-bottom: 1px dotted&quot;&gt;usuario&lt;/span&gt;" style="ellipse;whiteSpace=wrap;html=1;align=center;" vertex="1" parent="1">
          <mxGeometry x="1000" y="280" width="100" height="40" as="geometry" />
        </mxCell>
        <mxCell id="eyLXGdUFiboGXxb-YDFN-31" value="rua&lt;span style=&quot;color: rgba(0, 0, 0, 0); font-family: monospace; font-size: 0px; text-align: start; text-wrap: nowrap;&quot;&gt;%3CmxGraphModel%3E%3Croot%3E%3CmxCell%20id%3D%220%22%2F%3E%3CmxCell%20id%3D%221%22%20parent%3D%220%22%2F%3E%3CmxCell%20id%3D%222%22%20value%3D%22descricao%22%20style%3D%22ellipse%3BwhiteSpace%3Dwrap%3Bhtml%3D1%3Balign%3Dcenter%3B%22%20vertex%3D%221%22%20parent%3D%221%22%3E%3CmxGeometry%20x%3D%22720%22%20y%3D%22360%22%20width%3D%22100%22%20height%3D%2240%22%20as%3D%22geometry%22%2F%3E%3C%2FmxCell%3E%3C%2Froot%3E%3C%2FmxGraphModel%3E&lt;/span&gt;" style="ellipse;whiteSpace=wrap;html=1;align=center;" vertex="1" parent="1">
          <mxGeometry x="670" y="390" width="100" height="40" as="geometry" />
        </mxCell>
        <mxCell id="eyLXGdUFiboGXxb-YDFN-32" value="bairro" style="ellipse;whiteSpace=wrap;html=1;align=center;" vertex="1" parent="1">
          <mxGeometry x="750" y="450" width="100" height="40" as="geometry" />
        </mxCell>
        <mxCell id="eyLXGdUFiboGXxb-YDFN-33" value="timestamp" style="ellipse;whiteSpace=wrap;html=1;align=center;" vertex="1" parent="1">
          <mxGeometry x="927" y="390" width="100" height="40" as="geometry" />
        </mxCell>
        <mxCell id="eyLXGdUFiboGXxb-YDFN-34" value="cep" style="ellipse;whiteSpace=wrap;html=1;align=center;" vertex="1" parent="1">
          <mxGeometry x="860" y="450" width="100" height="40" as="geometry" />
        </mxCell>
        <mxCell id="eyLXGdUFiboGXxb-YDFN-35" value="setor" style="ellipse;whiteSpace=wrap;html=1;align=center;" vertex="1" parent="1">
          <mxGeometry x="960" y="330" width="100" height="40" as="geometry" />
        </mxCell>
        <mxCell id="eyLXGdUFiboGXxb-YDFN-50" style="rounded=0;orthogonalLoop=1;jettySize=auto;html=1;exitX=0.5;exitY=1;exitDx=0;exitDy=0;entryX=0.5;entryY=0;entryDx=0;entryDy=0;" edge="1" parent="1" source="eyLXGdUFiboGXxb-YDFN-44" target="eyLXGdUFiboGXxb-YDFN-45">
          <mxGeometry relative="1" as="geometry" />
        </mxCell>
        <mxCell id="eyLXGdUFiboGXxb-YDFN-51" style="rounded=0;orthogonalLoop=1;jettySize=auto;html=1;exitX=0.5;exitY=1;exitDx=0;exitDy=0;" edge="1" parent="1" source="eyLXGdUFiboGXxb-YDFN-44" target="eyLXGdUFiboGXxb-YDFN-46">
          <mxGeometry relative="1" as="geometry" />
        </mxCell>
        <mxCell id="eyLXGdUFiboGXxb-YDFN-52" style="rounded=0;orthogonalLoop=1;jettySize=auto;html=1;exitX=0.5;exitY=1;exitDx=0;exitDy=0;entryX=0.5;entryY=0;entryDx=0;entryDy=0;" edge="1" parent="1" source="eyLXGdUFiboGXxb-YDFN-44" target="eyLXGdUFiboGXxb-YDFN-47">
          <mxGeometry relative="1" as="geometry" />
        </mxCell>
        <mxCell id="eyLXGdUFiboGXxb-YDFN-53" style="rounded=0;orthogonalLoop=1;jettySize=auto;html=1;exitX=0.5;exitY=1;exitDx=0;exitDy=0;entryX=0.5;entryY=0;entryDx=0;entryDy=0;" edge="1" parent="1" source="eyLXGdUFiboGXxb-YDFN-44" target="eyLXGdUFiboGXxb-YDFN-48">
          <mxGeometry relative="1" as="geometry" />
        </mxCell>
        <mxCell id="eyLXGdUFiboGXxb-YDFN-54" style="rounded=0;orthogonalLoop=1;jettySize=auto;html=1;exitX=0.5;exitY=1;exitDx=0;exitDy=0;entryX=0.5;entryY=0;entryDx=0;entryDy=0;" edge="1" parent="1" source="eyLXGdUFiboGXxb-YDFN-44" target="eyLXGdUFiboGXxb-YDFN-49">
          <mxGeometry relative="1" as="geometry" />
        </mxCell>
        <mxCell id="eyLXGdUFiboGXxb-YDFN-44" value="tb_funcionario" style="whiteSpace=wrap;html=1;align=center;" vertex="1" parent="1">
          <mxGeometry x="200" y="585" width="100" height="40" as="geometry" />
        </mxCell>
        <mxCell id="eyLXGdUFiboGXxb-YDFN-45" value="id" style="ellipse;whiteSpace=wrap;html=1;align=center;fontStyle=4;" vertex="1" parent="1">
          <mxGeometry x="60" y="670" width="100" height="40" as="geometry" />
        </mxCell>
        <mxCell id="eyLXGdUFiboGXxb-YDFN-46" value="nome" style="ellipse;whiteSpace=wrap;html=1;align=center;" vertex="1" parent="1">
          <mxGeometry x="110" y="730" width="100" height="40" as="geometry" />
        </mxCell>
        <mxCell id="eyLXGdUFiboGXxb-YDFN-47" value="role" style="ellipse;whiteSpace=wrap;html=1;align=center;" vertex="1" parent="1">
          <mxGeometry x="200" y="780" width="100" height="40" as="geometry" />
        </mxCell>
        <mxCell id="eyLXGdUFiboGXxb-YDFN-48" value="email" style="ellipse;whiteSpace=wrap;html=1;align=center;" vertex="1" parent="1">
          <mxGeometry x="290" y="730" width="100" height="40" as="geometry" />
        </mxCell>
        <mxCell id="eyLXGdUFiboGXxb-YDFN-49" value="senha" style="ellipse;whiteSpace=wrap;html=1;align=center;" vertex="1" parent="1">
          <mxGeometry x="340" y="670" width="100" height="40" as="geometry" />
        </mxCell>
      </root>
    </mxGraphModel>
  </diagram>
</mxfile>
